<!DOCTYPE svg PUBLIC "-//W3C//DTD SVG 1.1//EN" "http://www.w3.org/Graphics/SVG/1.1/DTD/svg11.dtd">
<!-- Uploaded to: SVG Repo, www.svgrepo.com, Transformed by: SVG Repo Mixer Tools -->
<svg width="800px" height="800px" viewBox="0 0 24 24" xmlns="http://www.w3.org/2000/svg" id="jewelry" class="icon glyph" fill="#000000">
<g id="SVGRepo_bgCarrier" stroke-width="0"/>
<g id="SVGRepo_tracerCarrier" stroke-linecap="round" stroke-linejoin="round"/>
<g id="SVGRepo_iconCarrier">
<path d="M20,14A8,8,0,1,1,6.3,8.39L7.52,10a6,6,0,1,0,9,0L17.7,8.39A8,8,0,0,1,20,14ZM17.77,5.36l-2.5-3A1,1,0,0,0,14.5,2h-5a1,1,0,0,0-.77.36l-2.5,3a1,1,0,0,0,0,1.24l3.75,5a1,1,0,0,0,.8.4h2.5a1,1,0,0,0,.8-.4l3.75-5A1,1,0,0,0,17.77,5.36Z" style="fill:#ffffff"/>
</g>
</svg>